<svg xmlns="http://www.w3.org/2000/svg" style="display:none">
  <!-- ============================================================
       PRIME OUTDOOR EXPERTS — Modern Icon Set
       Style: Lucide / Phosphor outline, 1.5px stroke,
       round caps + joins, balanced 24px viewBox.
  ============================================================ -->
  <defs>
    <style>
      .pi-icon { fill: none; stroke: currentColor; stroke-width: 1.5; stroke-linecap: round; stroke-linejoin: round; }
      .pi-icon-fill { fill: currentColor; }
    </style>
  </defs>

  <!-- Leaf — refined teardrop with vein -->
  <symbol id="icon-leaf" viewBox="0 0 24 24">
    <g class="pi-icon">
      <path d="M11.5 21C7 21 3.5 17.5 3.5 13c0-4.5 3-7.5 7-9 1.5 5.5 5 8.5 9.5 9-1 4.5-4.5 8-8.5 8Z"/>
      <path d="M3.5 21c2-4.5 5.5-8 11-9.5"/>
    </g>
  </symbol>

  <!-- Building / Commercial -->
  <symbol id="icon-building" viewBox="0 0 24 24">
    <g class="pi-icon">
      <rect x="4.5" y="3" width="15" height="18" rx="1.75"/>
      <path d="M9 21v-3.5h6V21"/>
      <path d="M8 7.5h2M14 7.5h2M8 11.5h2M14 11.5h2M8 15.5h2M14 15.5h2"/>
    </g>
  </symbol>

  <!-- Home / Residential — modern 2-line roof -->
  <symbol id="icon-home" viewBox="0 0 24 24">
    <g class="pi-icon">
      <path d="M3.5 10.5 12 3.5l8.5 7"/>
      <path d="M5 9.5V19a1.5 1.5 0 0 0 1.5 1.5h11A1.5 1.5 0 0 0 19 19V9.5"/>
      <path d="M9.5 20.5v-6h5v6"/>
    </g>
  </symbol>

  <!-- Community / HOA — duplex silhouette -->
  <symbol id="icon-community" viewBox="0 0 24 24">
    <g class="pi-icon">
      <path d="M3 20.5h18"/>
      <path d="M5 20.5V11l5-3.5 5 3.5"/>
      <path d="M15 20.5V13l3-2 2.5 1.5v8"/>
      <path d="M9 20.5v-4.5h2v4.5"/>
    </g>
  </symbol>

  <!-- Retail / Storefront -->
  <symbol id="icon-retail" viewBox="0 0 24 24">
    <g class="pi-icon">
      <path d="M4.5 8.5 6 4h12l1.5 4.5"/>
      <path d="M4.5 8.5v11.25A.75.75 0 0 0 5.25 20.5h13.5a.75.75 0 0 0 .75-.75V8.5"/>
      <path d="M4.5 8.5h15"/>
      <path d="M9.5 12h5"/>
    </g>
  </symbol>

  <!-- Medical / Pulse -->
  <symbol id="icon-medical" viewBox="0 0 24 24">
    <g class="pi-icon">
      <path d="M3 12h4l2.5-7 5 14 2.5-7H21"/>
    </g>
  </symbol>

  <!-- Industrial / Factory -->
  <symbol id="icon-industrial" viewBox="0 0 24 24">
    <g class="pi-icon">
      <path d="M3 20.5V13l5 2.5V13l5 2.5V13l5 2.5V20.5Z"/>
      <path d="M3 20.5h18"/>
      <path d="M3 13V8.5"/>
    </g>
  </symbol>

  <!-- Hotel / Bed -->
  <symbol id="icon-hotel" viewBox="0 0 24 24">
    <g class="pi-icon">
      <path d="M3 18.5V8"/>
      <path d="M3 14h18v4.5"/>
      <path d="M21 14V11a3 3 0 0 0-3-3h-7v6"/>
      <circle cx="7.5" cy="11.5" r="1.75"/>
    </g>
  </symbol>

  <!-- Map / Location -->
  <symbol id="icon-map" viewBox="0 0 24 24">
    <g class="pi-icon">
      <path d="M3 6.5 9 4l6 2.5L21 4v13.5l-6 2.5-6-2.5-6 2.5Z"/>
      <path d="M9 4v13.5"/>
      <path d="M15 6.5V20"/>
    </g>
  </symbol>

  <!-- Clipboard / Report -->
  <symbol id="icon-clipboard" viewBox="0 0 24 24">
    <g class="pi-icon">
      <rect x="8.5" y="3" width="7" height="3.5" rx="1"/>
      <path d="M8.5 5H7a2 2 0 0 0-2 2v12a2 2 0 0 0 2 2h10a2 2 0 0 0 2-2V7a2 2 0 0 0-2-2h-1.5"/>
      <path d="M9 11.5h6M9 15h6M9 18h4"/>
    </g>
  </symbol>

  <!-- Star — filled, refined points -->
  <symbol id="icon-star" viewBox="0 0 24 24">
    <path class="pi-icon-fill" d="M11.04 2.92a1.05 1.05 0 0 1 1.92 0l2.42 5.07 5.58.79c.86.12 1.2 1.18.58 1.79l-4.05 3.95.96 5.55c.15.86-.76 1.51-1.53 1.1L12 18.61l-4.92 2.56c-.77.4-1.68-.24-1.53-1.1l.96-5.55-4.05-3.95c-.62-.61-.28-1.67.58-1.79l5.58-.79Z"/>
  </symbol>

  <!-- Check — refined -->
  <symbol id="icon-check" viewBox="0 0 24 24">
    <path class="pi-icon" stroke-width="1.75" d="m5 12.5 4.5 4.5L19 7.5"/>
  </symbol>

  <!-- Check filled badge -->
  <symbol id="icon-check-filled" viewBox="0 0 24 24">
    <path class="pi-icon-fill" d="M12 2a10 10 0 1 0 10 10A10 10 0 0 0 12 2Zm-1.4 14.6L6.4 12.4l1.4-1.4 2.8 2.8 5.8-5.8 1.4 1.4Z"/>
  </symbol>

  <!-- Phone — refined handset -->
  <symbol id="icon-phone" viewBox="0 0 24 24">
    <g class="pi-icon">
      <path d="M21.5 17v2.7a1.8 1.8 0 0 1-2 1.8 18 18 0 0 1-7.85-2.79 17.7 17.7 0 0 1-5.45-5.45A18 18 0 0 1 3.42 5.4a1.8 1.8 0 0 1 1.79-2H7.9a1.8 1.8 0 0 1 1.81 1.55 11.5 11.5 0 0 0 .63 2.55 1.8 1.8 0 0 1-.41 1.9L8.79 10.5a14.55 14.55 0 0 0 5.45 5.45l1.14-1.14a1.8 1.8 0 0 1 1.9-.41 11.5 11.5 0 0 0 2.55.63 1.8 1.8 0 0 1 1.55 1.81Z"/>
    </g>
  </symbol>

  <!-- Users / Crew -->
  <symbol id="icon-users" viewBox="0 0 24 24">
    <g class="pi-icon">
      <path d="M16 20v-2a3.5 3.5 0 0 0-3.5-3.5h-5A3.5 3.5 0 0 0 4 18v2"/>
      <circle cx="10" cy="7.5" r="3.5"/>
      <path d="M21 20v-2a3.5 3.5 0 0 0-2.62-3.39"/>
      <path d="M16.5 4.11a3.5 3.5 0 0 1 0 6.78"/>
    </g>
  </symbol>

  <!-- Mobile -->
  <symbol id="icon-mobile" viewBox="0 0 24 24">
    <g class="pi-icon">
      <rect x="6" y="2.5" width="12" height="19" rx="2.5"/>
      <path d="M11 18h2"/>
    </g>
  </symbol>

  <!-- Flower — modern bloom -->
  <symbol id="icon-flower" viewBox="0 0 24 24">
    <g class="pi-icon">
      <circle cx="12" cy="12" r="2.5"/>
      <path d="M12 9.5V5a2.5 2.5 0 1 1 0 5"/>
      <path d="M12 14.5V19a2.5 2.5 0 1 1 0-5"/>
      <path d="M9.5 12H5a2.5 2.5 0 1 1 5 0"/>
      <path d="M14.5 12H19a2.5 2.5 0 1 1-5 0"/>
    </g>
  </symbol>

  <!-- Clock -->
  <symbol id="icon-clock" viewBox="0 0 24 24">
    <g class="pi-icon">
      <circle cx="12" cy="12" r="9"/>
      <path d="M12 7v5l3.25 1.75"/>
    </g>
  </symbol>

  <!-- Mail -->
  <symbol id="icon-mail" viewBox="0 0 24 24">
    <g class="pi-icon">
      <rect x="2.5" y="5" width="19" height="14" rx="2"/>
      <path d="m3 7 9 6 9-6"/>
    </g>
  </symbol>

  <!-- Pin / Location -->
  <symbol id="icon-pin" viewBox="0 0 24 24">
    <g class="pi-icon">
      <path d="M19.5 10.5c0 5.75-7.5 11-7.5 11s-7.5-5.25-7.5-11a7.5 7.5 0 0 1 15 0Z"/>
      <circle cx="12" cy="10.5" r="2.5"/>
    </g>
  </symbol>

  <!-- Target -->
  <symbol id="icon-target" viewBox="0 0 24 24">
    <g class="pi-icon">
      <circle cx="12" cy="12" r="9"/>
      <circle cx="12" cy="12" r="5.5"/>
      <circle cx="12" cy="12" r="2"/>
    </g>
  </symbol>

  <!-- Message bubble -->
  <symbol id="icon-message" viewBox="0 0 24 24">
    <g class="pi-icon">
      <path d="M21 11.5a8 8 0 0 1-1.16 4.18 8 8 0 0 1-7.34 4.32A8 8 0 0 1 8.5 19l-5 1.5L5 15.5a8 8 0 0 1-1-4 8 8 0 1 1 17 0Z"/>
    </g>
  </symbol>

  <!-- Gift -->
  <symbol id="icon-gift" viewBox="0 0 24 24">
    <g class="pi-icon">
      <path d="M5 11.5V20a1.5 1.5 0 0 0 1.5 1.5h11a1.5 1.5 0 0 0 1.5-1.5v-8.5"/>
      <rect x="3" y="7" width="18" height="4.5" rx="1"/>
      <path d="M12 7v14.5"/>
      <path d="M12 7H8a2.5 2.5 0 1 1 0-5c3 0 4 5 4 5Z"/>
      <path d="M12 7h4a2.5 2.5 0 1 0 0-5c-3 0-4 5-4 5Z"/>
    </g>
  </symbol>

  <!-- Recycle / Sustainable -->
  <symbol id="icon-recycle" viewBox="0 0 24 24">
    <g class="pi-icon">
      <path d="m7 19.5-2.5 1L3 18a2 2 0 0 1 .25-1.85l3.05-5.32"/>
      <path d="M9 6.5 11 4l3 1.5"/>
      <path d="m17.5 7.5-1.85-3.2A2 2 0 0 0 13.92 3.5h-.84A2 2 0 0 0 11.35 4.5l-1 1.75"/>
      <path d="M14 14h7.25l-1.7 4A2 2 0 0 1 17.7 19.5H10.5"/>
      <path d="m17 17 .5 2.5-2.5.5"/>
      <path d="m6.5 13-3.5-1.5L4 9"/>
    </g>
  </symbol>

  <!-- Water — refined teardrop -->
  <symbol id="icon-water" viewBox="0 0 24 24">
    <g class="pi-icon">
      <path d="M12 21a7 7 0 0 0 7-7c0-3.5-3.5-6.5-7-12-3.5 5.5-7 8.5-7 12a7 7 0 0 0 7 7Z"/>
      <path d="M9 14a3 3 0 0 0 2 3"/>
    </g>
  </symbol>

  <!-- Scissors — pruning -->
  <symbol id="icon-scissors" viewBox="0 0 24 24">
    <g class="pi-icon">
      <circle cx="6" cy="6.5" r="2.5"/>
      <circle cx="6" cy="17.5" r="2.5"/>
      <path d="m20 4.5-12 11"/>
      <path d="m14 14 6 5.5"/>
    </g>
  </symbol>

  <!-- Wrench / Service -->
  <symbol id="icon-wrench" viewBox="0 0 24 24">
    <g class="pi-icon">
      <path d="M14.7 6.3a1 1 0 0 0 0 1.4l1.6 1.6a1 1 0 0 0 1.4 0l3.77-3.77a6 6 0 0 1-7.94 7.94l-6.91 6.91a2.12 2.12 0 0 1-3-3l6.91-6.91a6 6 0 0 1 7.94-7.94l-3.76 3.76Z"/>
    </g>
  </symbol>

  <!-- Calendar -->
  <symbol id="icon-calendar" viewBox="0 0 24 24">
    <g class="pi-icon">
      <rect x="3.5" y="5" width="17" height="16" rx="2"/>
      <path d="M16 3v4M8 3v4M3.5 10h17"/>
      <circle cx="8" cy="14.5" r=".75" class="pi-icon-fill"/>
      <circle cx="12" cy="14.5" r=".75" class="pi-icon-fill"/>
      <circle cx="16" cy="14.5" r=".75" class="pi-icon-fill"/>
    </g>
  </symbol>

  <!-- Package -->
  <symbol id="icon-package" viewBox="0 0 24 24">
    <g class="pi-icon">
      <path d="M21 16V8a2 2 0 0 0-1-1.73l-7-4a2 2 0 0 0-2 0l-7 4A2 2 0 0 0 3 8v8a2 2 0 0 0 1 1.73l7 4a2 2 0 0 0 2 0l7-4A2 2 0 0 0 21 16Z"/>
      <path d="m3.3 7 8.7 5 8.7-5"/>
      <path d="M12 22V12"/>
      <path d="m7.5 4.5 9 5.25"/>
    </g>
  </symbol>

  <!-- Sparkle — premium shine accent -->
  <symbol id="icon-sparkle" viewBox="0 0 24 24">
    <g class="pi-icon">
      <path d="M12 3.5 13.5 9l5.5 1.5-5.5 1.5L12 17.5 10.5 12 5 10.5 10.5 9Z"/>
      <path d="M19 4v3M21 5.5h-3M19 17v3M21 18.5h-3"/>
    </g>
  </symbol>

  <!-- Shield — trust / licensed -->
  <symbol id="icon-shield" viewBox="0 0 24 24">
    <g class="pi-icon">
      <path d="M12 21s-7.5-3.5-7.5-9.5V5.75L12 3l7.5 2.75v5.75c0 6-7.5 9.5-7.5 9.5Z"/>
      <path d="m9 12 2 2 4-4"/>
    </g>
  </symbol>

  <!-- Lightning bolt -->
  <symbol id="icon-bolt" viewBox="0 0 24 24">
    <g class="pi-icon">
      <path d="M13 2 4 14h7l-1 8 9-12h-7l1-8Z"/>
    </g>
  </symbol>

  <!-- Arrow up-right (for CTAs) -->
  <symbol id="icon-arrow-up-right" viewBox="0 0 24 24">
    <g class="pi-icon" stroke-width="1.75">
      <path d="M7 17 17 7"/>
      <path d="M8 7h9v9"/>
    </g>
  </symbol>

  <!-- Arrow right -->
  <symbol id="icon-arrow-right" viewBox="0 0 24 24">
    <g class="pi-icon" stroke-width="1.75">
      <path d="M5 12h14"/>
      <path d="m13 6 6 6-6 6"/>
    </g>
  </symbol>

  <!-- Camera — photo report -->
  <symbol id="icon-camera" viewBox="0 0 24 24">
    <g class="pi-icon">
      <path d="M3 8.5A2 2 0 0 1 5 6.5h2l1.5-2.25A1 1 0 0 1 9.33 3.75h5.34a1 1 0 0 1 .83.5L17 6.5h2a2 2 0 0 1 2 2v9.5a2 2 0 0 1-2 2H5a2 2 0 0 1-2-2Z"/>
      <circle cx="12" cy="12.5" r="3.5"/>
    </g>
  </symbol>

  <!-- Sprout / Growth -->
  <symbol id="icon-sprout" viewBox="0 0 24 24">
    <g class="pi-icon">
      <path d="M12 21v-7"/>
      <path d="M12 14a5 5 0 0 1-5-5V6h2.5A4.5 4.5 0 0 1 14 10.5"/>
      <path d="M12 11.5a5 5 0 0 1 5-5h3v2a5 5 0 0 1-5 5"/>
    </g>
  </symbol>

  <!-- Tree (full pine for service icons) -->
  <symbol id="icon-tree" viewBox="0 0 24 24">
    <g class="pi-icon">
      <path d="M12 3 7 10h2.5L6 15h2.5l-3.5 4.5h14L15.5 15H18l-3.5-5H17Z"/>
      <path d="M12 19.5V22"/>
    </g>
  </symbol>

  <!-- Quote mark — testimonial -->
  <symbol id="icon-quote" viewBox="0 0 24 24">
    <g class="pi-icon-fill">
      <path d="M6 8.5C4 8.5 2.5 10 2.5 12c0 1.5 1 2.75 2.5 3.25-.25 1.25-1 2.25-2.5 2.75v1c3-.25 5.5-2.5 5.5-6.5 0-2.5-1-4-2-4Zm9 0c-2 0-3.5 1.5-3.5 3.5 0 1.5 1 2.75 2.5 3.25-.25 1.25-1 2.25-2.5 2.75v1c3-.25 5.5-2.5 5.5-6.5 0-2.5-1-4-2-4Z"/>
    </g>
  </symbol>

  <!-- Compass / Service Area -->
  <symbol id="icon-compass" viewBox="0 0 24 24">
    <g class="pi-icon">
      <circle cx="12" cy="12" r="9"/>
      <path d="m15.5 8.5-2 6.5-6.5 2 2-6.5Z"/>
    </g>
  </symbol>

</svg>
